<?xml version="1.0" encoding="UTF-8"?>
<svg width="2086px" height="462px" viewBox="0 0 2086 462" version="1.1" xmlns="http://www.w3.org/2000/svg" xmlns:xlink="http://www.w3.org/1999/xlink">
    <title>Artboard</title>
    <g id="Artboard" stroke="none" stroke-width="1" fill="none" fill-rule="evenodd">
        <polygon id="Triangle" fill="#0D3581" transform="translate(70.311293, 70.311293) rotate(-180.000000) translate(-70.311293, -70.311293) " points="70.3112932 1.02318154e-12 140.622586 140.622586 1.13686838e-13 140.622586"></polygon>
        <polygon id="Triangle" fill="#BB233E" transform="translate(140.622586, 230.933880) rotate(-180.000000) translate(-140.622586, -230.933880) " points="140.622586 160.622586 210.93388 301.245173 70.3112932 301.245173"></polygon>
        <polygon id="Triangle" fill="#00C6AE" transform="translate(209.998023, 391.688707) rotate(-180.000000) translate(-209.998023, -391.688707) " points="209.998023 321.377414 280.309317 462 139.68673 462"></polygon>
        <path d="M541.449998,317 L541.449998,189.95 L573.999998,189.95 L573.999998,145.85 L541.449998,145.85 L541.449998,121 C541.449998,107.35 547.749998,102.45 557.549998,102.45 C562.449998,102.45 571.549998,104.9 578.899998,108.75 L589.049998,69.2 C583.099998,65 565.599998,55.9 542.849998,55.9 C508.549998,55.9 486.499998,76.55 486.499998,118.9 L486.499998,145.85 L470.049998,145.85 L470.049998,189.95 L486.499998,189.95 L486.499998,317 L541.449998,317 Z M647.016665,320.15 C665.916665,320.15 683.066665,312.8 695.666665,297.4 L696.366665,297.75 L696.366665,317 L751.316665,317 L751.316665,145.85 L696.366665,145.85 L696.366665,230.55 C696.366665,258.2 682.716665,271.85 666.266665,271.85 C647.716665,271.85 640.016665,261.35 640.016665,233.7 L640.016665,145.85 L585.416665,145.85 L585.416665,247.35 C585.416665,301.25 610.966665,320.15 647.016665,320.15 Z M828.533332,317 L828.533332,230.9 C828.533332,204.3 841.133333,191.35 860.033332,191.35 C877.883333,191.35 887.333332,199.4 887.333332,227.75 L887.333332,317 L941.933332,317 L941.933332,214.45 C941.933332,160.2 916.033332,142.7 880.683332,142.7 C860.733332,142.7 842.533332,150.4 829.233332,165.8 L828.533332,165.8 L828.533332,145.85 L773.933332,145.85 L773.933332,317 L828.533332,317 Z M1018.45,317 L1018.45,230.9 C1018.45,204.3 1031.05,191.35 1049.95,191.35 C1067.8,191.35 1077.25,199.4 1077.25,227.75 L1077.25,317 L1131.85,317 L1131.85,214.45 C1131.85,160.2 1105.95,142.7 1070.6,142.7 C1050.65,142.7 1032.45,150.4 1019.15,165.8 L1018.45,165.8 L1018.45,145.85 L963.849999,145.85 L963.849999,317 L1018.45,317 Z M1234.96667,320.15 C1273.81667,320.15 1297.61667,307.2 1311.96667,289.35 L1280.46667,257.15 C1268.91667,270.1 1254.56667,275.35 1240.56667,275.7 C1219.56667,275.7 1203.11667,265.55 1199.61667,245.95 L1316.16667,245.95 C1316.36225,243.994118 1316.66714,240.617344 1316.89809,237.163418 L1316.96835,236.071708 C1317.11433,233.707569 1317.21667,231.373529 1317.21667,229.5 C1317.21667,178.75 1281.86667,142.7 1233.56667,142.7 C1181.76667,142.7 1145.36667,179.45 1145.36667,231.25 C1145.36667,284.45 1183.16667,320.15 1234.96667,320.15 Z M1264.01667,213.4 L1199.96667,213.4 C1203.46667,196.25 1216.06667,186.1 1232.86667,186.1 C1249.31667,186.1 1260.51667,196.6 1264.01667,213.4 Z M1388.83333,317 L1388.83333,59.4 L1334.23333,59.4 L1334.23333,317 L1388.83333,317 Z M1469.2,317 L1469.2,231.25 C1469.2,204.3 1481.8,191.35 1498.95,191.35 C1517.15,191.35 1523.8,207.45 1523.8,229.85 L1523.8,317 L1578.4,317 L1578.4,231.25 C1578.4,204.3 1591.35,191.35 1607.1,191.35 C1626,191.35 1631.95,207.45 1631.95,229.85 L1631.95,317 L1686.55,317 L1686.55,217.25 C1686.55,163.35 1662.05,142.7 1626,142.7 C1602.2,142.7 1581.9,151.1 1568.25,168.25 L1567.55,168.25 C1557.4,150.4 1539.55,142.7 1517.85,142.7 C1500,142.7 1482.85,150.75 1469.55,166.15 L1469.2,166.15 L1469.2,145.85 L1414.6,145.85 L1414.6,317 L1469.2,317 Z M1780.56667,320.15 C1801.21667,320.15 1816.61667,313.15 1827.81667,298.8 L1828.51667,299.15 L1828.51667,317 L1880.66667,317 L1880.66667,145.85 L1825.71667,145.85 L1825.71667,163.7 L1825.01667,164.05 C1813.11667,150.05 1795.96667,142.7 1777.76667,142.7 C1733.66667,142.7 1699.71667,179.1 1699.71667,231.6 C1699.71667,284.45 1733.66667,320.15 1780.56667,320.15 Z M1792.11667,271.85 C1770.41667,271.85 1755.36667,255.75 1755.36667,231.6 C1755.36667,207.1 1771.11667,191 1792.11667,191 C1812.41667,191 1828.16667,208.15 1828.16667,231.6 C1828.16667,256.1 1811.71667,271.85 1792.11667,271.85 Z M1958.23333,386.3 L1958.23333,300.55 L1958.93333,300.2 C1970.13333,313.15 1985.18333,320.15 2004.78333,320.15 C2052.03333,320.15 2085.63333,284.45 2085.63333,231.6 C2085.63333,179.1 2052.03333,142.7 2007.58333,142.7 C1988.33333,142.7 1971.18333,150.05 1958.93333,164.05 L1958.23333,164.05 L1958.23333,145.85 L1903.63333,145.85 L1903.63333,386.3 L1958.23333,386.3 Z M1993.93333,271.85 C1972.23333,271.85 1955.78333,256.1 1955.78333,231.6 C1955.78333,208.15 1971.53333,191 1993.58333,191 C2014.58333,191 2030.33333,207.1 2030.33333,231.6 C2030.33333,255.75 2014.93333,271.85 1993.93333,271.85 Z" id="funnelmap" fill="#FFFFFF" fill-rule="nonzero"></path>
        <path d="M2041.21524,109 L2041.21524,84.92 L2049.37524,84.92 L2049.37524,80.6 L2028.33524,80.6 L2028.33524,84.92 L2036.37524,84.92 L2036.37524,109 L2041.21524,109 Z M2057.4,109 L2057.4,90 L2057.44,90 L2065.2,103.52 L2068.36,103.52 L2076.12,90 L2076.2,90 L2076.2,109 L2081.04,109 L2081.04,80.6 L2076.2,80.6 L2066.84,97.6 L2066.76,97.6 L2057.4,80.6 L2052.56,80.6 L2052.56,109 L2057.4,109 Z" id="TM" fill="#FFFFFF" fill-rule="nonzero"></path>
        <polygon id="Path" fill="#0758B3" points="140.622586 1.02318154e-12 418.245173 1.02318154e-12 348.93388 140 70.3112932 140.622586"></polygon>
        <polygon id="Path-2" fill="#E73C5C" points="208.998023 160.622586 350.556466 160.622586 280.245173 301.245173 140.622586 301.245173"></polygon>
    </g>
</svg>